<svg xmlns="http://www.w3.org/2000/svg" xmlns:xlink="http://www.w3.org/1999/xlink" width="213" height="96" viewBox="0 0 213 96">
  <defs>
    <clipPath id="clip-path">
      <rect id="Rectangle_2175" data-name="Rectangle 2175" width="96" height="213" transform="translate(0.164 0.232)" fill="#ffda7d"/>
    </clipPath>
  </defs>
  <g id="DF_LOGO" data-name="DF LOGO" transform="translate(-0.112 96.999) rotate(-90)">
    <g id="Group_5481" data-name="Group 5481" transform="translate(0.835 -0.12)" clip-path="url(#clip-path)">
      <path id="Path_3768" data-name="Path 3768" d="M38.382,211.654l-1.439-.639L8.786,198.652C2.216,195.752,0,193.259,0,188.781a12.432,12.432,0,0,1,1.478-5.754l.459-.88,3.336,1.6-.514.944a8.753,8.753,0,0,0-1.071,4.144c0,2.334.942,3.886,6.261,6.331l28.433-13.682v4.239L37.8,186,14.3,197.128l24.084,10.422ZM45.319,20.013V41a3.738,3.738,0,0,0,3.739,3.739V16.11H8.88v.33a3.574,3.574,0,0,0,3.573,3.573H26.745v18.92a3.409,3.409,0,0,0,3.409,3.409h.33V20.013ZM54.312,61.8V48.358H94.487V61.8c0,12.333-8.426,21.283-20.034,21.283-11.669,0-20.14-8.95-20.14-21.283m3.733-9.544v9.6c0,10.011,6.831,17.277,16.243,17.277,9.538,0,16.46-7.289,16.46-17.329V52.258ZM35.525,147.772a11.934,11.934,0,0,1-8.518,3.022H12.343a3.466,3.466,0,0,1-3.464-3.462V147h3.491a13.985,13.985,0,0,1-4.146-10.523c0-5.506,2.946-11.43,9.411-11.43,6.049,0,9.959,5.17,9.959,13.174A32.957,32.957,0,0,1,26.426,147H26.9c3.757,0,8.235-1.523,8.235-8.78a18.261,18.261,0,0,0-2.177-8.475l-.489-.973,3.43-1.47.426.887a22.5,22.5,0,0,1,2.5,10.138c0,4.075-1.108,7.253-3.293,9.443m-12.867-.717a30.04,30.04,0,0,0,1.257-8.886c0-5.686-2.322-9.218-6.055-9.218-4.11,0-5.95,3.837-5.95,7.637,0,5.87,3.569,10.467,8.127,10.467Zm35.116-5.381h4.75l5.434,5.662-13.3,11.606-.346.307v4.89l16.262-14.124L83.809,163.79v-5.309l-16.35-16.807H94.574v-3.792H54.312v.33a3.464,3.464,0,0,0,3.462,3.462m14.083-34.109h.469c3.759,0,8.237-1.523,8.237-8.778a18.176,18.176,0,0,0-2.179-8.475l-.485-.975,3.426-1.466.424.883a22.424,22.424,0,0,1,2.5,10.14c0,4.077-1.11,7.253-3.3,9.441a11.889,11.889,0,0,1-8.508,3.022H57.772a3.466,3.466,0,0,1-3.464-3.462v-.33H57.8a13.968,13.968,0,0,1-4.14-10.523c0-5.5,2.944-11.426,9.409-11.426,6.051,0,9.961,5.17,9.961,13.172a32.769,32.769,0,0,1-1.171,8.778M69.345,98.73c0-5.684-2.322-9.216-6.059-9.216-4.109,0-5.948,3.837-5.948,7.638,0,5.87,3.571,10.465,8.127,10.465h2.621a29.961,29.961,0,0,0,1.259-8.887M47.586,111.409h0a3.792,3.792,0,0,0-3.792-3.792H38.382v-4.195h-3.63v4.195H16.931c-5.348,0-8.542,3.112-8.542,8.323a10.67,10.67,0,0,0,1.026,4.748l.28.581h3.938l-.672-1.458a8.723,8.723,0,0,1-.887-3.706c0-3.159,1.642-4.695,5.021-4.695H34.753v6.667a3.3,3.3,0,0,0,3.3,3.3h.328v-9.968ZM80.509,132.1v.244l3.815,1.163.037-1.446a12.526,12.526,0,0,0-5.733-10.324h5.18v-3.79h-29.5v.33a3.463,3.463,0,0,0,3.46,3.46h10.58c5.846,0,12.158,3.962,12.158,10.363M35.525,66.718a11.931,11.931,0,0,1-8.518,3.024H12.343A3.468,3.468,0,0,1,8.88,66.278v-.33h3.487A13.977,13.977,0,0,1,8.225,55.426C8.225,49.922,11.17,44,17.636,44c6.049,0,9.959,5.17,9.959,13.172a32.954,32.954,0,0,1-1.169,8.778H26.9c3.757,0,8.235-1.523,8.235-8.778A18.247,18.247,0,0,0,32.954,48.7l-.489-.973,3.43-1.47.426.887a22.492,22.492,0,0,1,2.5,10.138c0,4.075-1.108,7.252-3.293,9.439M22.658,66a29.911,29.911,0,0,0,1.257-8.886c0-5.684-2.322-9.216-6.055-9.216-4.11,0-5.95,3.837-5.95,7.639C11.909,61.405,15.478,66,20.036,66Zm3.1,102.727c1.247-4.439,2.342-7.582,5.06-7.582,2.529,0,4.365,2.729,4.365,6.491a14.629,14.629,0,0,1-2.7,8.121l-.608.858,3.192,2.131.575-.838a18.945,18.945,0,0,0,3.225-10.217c0-6.022-3.5-10.393-8.323-10.393-5.5,0-7.066,5.459-8.452,10.287-1.21,4.437-2.3,7.578-5.33,7.578-2.719,0-4.693-2.867-4.693-6.818a15.787,15.787,0,0,1,3.54-9.609l.645-.819-2.971-2.256-.629.751a19.226,19.226,0,0,0-4.269,11.823c0,6.243,3.639,10.774,8.651,10.774,5.473,0,7.248-4.863,8.721-10.283M39.037,88.433a11.931,11.931,0,0,0-4.437-9.54h3.78V75.1H8.88v.33a3.47,3.47,0,0,0,3.465,3.465H25.372c5.594,0,9.974,4.095,9.974,9.323,0,5.5-3.606,8.778-9.646,8.778H8.88v.328a3.468,3.468,0,0,0,3.465,3.465H25.974c8.057,0,13.062-4.734,13.062-12.355M69.763,40.677a2.015,2.015,0,0,1,.557-.538.411.411,0,0,0-.049-.053,18.654,18.654,0,0,1-.442-35.4,5.027,5.027,0,0,1-.479-2.156,4.906,4.906,0,0,1,.086-.9,20.181,20.181,0,0,0,.229,39.193c.029-.051.063-.1.1-.151M81.115,2.955a4.035,4.035,0,0,1-.236,1.4,18.642,18.642,0,0,1,13.5,15.863c.018.131.141.131.145,0A20.184,20.184,0,0,0,81.041,2.156a4.347,4.347,0,0,1,.074.8M76.747,5.1h0c.07-.1.151-.229.246-.385l.1-.164,0,.047A1.617,1.617,0,0,0,78.709,6.21l.037,0,.035,0a1.591,1.591,0,0,0,.606-.125,2.249,2.249,0,0,0,.62-.4,3.034,3.034,0,0,0,.538-.643A17.88,17.88,0,0,1,92.176,30.31c-.082.158-.221.139-.192,0a20.4,20.4,0,0,0,1-6.585A16.394,16.394,0,0,0,77.257,7.343V6.755a1.065,1.065,0,0,0-.309-.745,1.054,1.054,0,0,0-.67-.3,6.034,6.034,0,0,0,.469-.612m-7.7,33.656A17.872,17.872,0,0,1,70.314,5.483c.031.037.061.076.092.113a3.725,3.725,0,0,0,.383.4,2.573,2.573,0,0,0-1.077.93A2.9,2.9,0,0,0,69.28,8.5c0,.049,0,.1,0,.145v.035c0,.039,0,.076.008.115l0,.025c.008.1.018.194.029.287a16.882,16.882,0,0,0-8.94,14.943,16.215,16.215,0,0,0,8.659,14.44c.323.156.334.391,0,.258m21.135-7.826a.836.836,0,0,0-.147-.1A12.9,12.9,0,0,0,91.3,25.241c0-.2-.006-.4-.016-.6-.33-7.054-6.374-12.761-14.026-13.379v-1.05a1.061,1.061,0,0,0-.309-.743,1.032,1.032,0,0,0-.26-.19,1.474,1.474,0,0,0,.33-.393,1.756,1.756,0,0,0,.236-.815A15.457,15.457,0,0,1,91.979,23.609a15.652,15.652,0,0,1-1.8,7.316M62.154,18.471a15.556,15.556,0,0,1,7.355-8.635,3.161,3.161,0,0,0,.133.311l.047.092-.053.092a2.376,2.376,0,0,0-.281,1.151,2.985,2.985,0,0,0,.061.6c.029.127.063.252.1.369a15.253,15.253,0,0,0-6.227,4.691,13.321,13.321,0,0,0-.917,1.325c-.137.221-.26.141-.217,0m19.7,19.821.039-.014-.039.014m4.238-4.585c1.059-.465,1.97.242,2.82-1.048a.131.131,0,0,0-.076-.219c-1.237-.356-2.066.729-2.774,1.184-.08.051-.057.121.029.082m2.559,1.919c-.018.094.053.1.088.012.3-.788,1.181-1.829.567-2.961a.131.131,0,0,0-.231-.029c-1.077,1.106-.193,1.847-.424,2.979m-3.6-.514c1.073-.428,1.96.311,2.856-.948a.132.132,0,0,0-.07-.223c-1.222-.4-2.087.655-2.813,1.085-.08.051-.061.121.027.086m2.1,1.958c-.037.086.033.108.084.027.438-.721,1.5-1.577,1.112-2.8a.134.134,0,0,0-.223-.072c-1.265.885-.536,1.779-.973,2.85m-3.512-.713c1.108-.336,1.929.475,2.926-.7a.132.132,0,0,0-.049-.229c-1.186-.5-2.138.477-2.895.848-.084.041-.072.111.018.084m2.131,2.14c-.039.086.031.108.082.027.451-.711,1.53-1.544,1.167-2.779a.131.131,0,0,0-.219-.076c-1.286.86-.573,1.767-1.03,2.828m-3.464-.952c1.126-.266,1.894.6,2.965-.516a.134.134,0,0,0-.037-.233c-1.151-.575-2.162.342-2.94.663-.09.035-.08.107.012.086m1.753,2.222c-.049.08.016.111.078.039.547-.641,1.734-1.313,1.546-2.588a.132.132,0,0,0-.207-.108c-1.392.67-.813,1.669-1.417,2.656M80.777,38.4c1.153-.109,1.8.846,3.006-.113a.128.128,0,0,0,0-.231c-1.061-.727-2.187.045-3,.258-.092.023-.094.1,0,.086m1.165,2.273c-.068.064-.012.111.065.057.694-.479,2.011-.831,2.154-2.111.012-.119-.063-.176-.174-.154-1.517.3-1.21,1.407-2.044,2.209M79.3,39.907c-.092.018-.072.086.023.084.842-.025,2.138.395,2.955-.6a.132.132,0,0,0-.061-.225c-1.433-.577-1.783.522-2.918.741m10.711-5.655c.018-1.067.85-1.724.487-2.8a.978.978,0,0,0-1.054-.743c-1.012.031-1.38,1.022-2.346,1.347-.092.031-.061.1.037.082a5.236,5.236,0,0,0,2.508-.524c.047-.029.057-.016.039.031-.336.846.135,1.884.238,2.6.014.1.09.108.09.008M79.215,3.213a1.471,1.471,0,0,1-.835,1.358.444.444,0,0,0,.6.543,2.293,2.293,0,0,0,1.085-2.16A2.786,2.786,0,0,0,77.292,0a2.726,2.726,0,0,0-2.121,1.222c-.266.344-1.052,1.595-1.216,1.812a1.737,1.737,0,0,1-1.353.872c-.725,0-1.337-.547-1.265-1.6A2.283,2.283,0,0,1,72.2.708a.516.516,0,0,0-.817-.493,2.828,2.828,0,0,0-.983,2.32,3.188,3.188,0,0,0,3.1,3.44,2.88,2.88,0,0,0,2.373-1.468c.2-.3.862-1.415,1.138-1.783a1.373,1.373,0,0,1,1.093-.69,1.187,1.187,0,0,1,1.108,1.179M71.442,28.437a2.683,2.683,0,0,1-1.11-2.406,3.028,3.028,0,0,1,6.049-.047,2.658,2.658,0,0,1-2.9,2.842V25.075c-1.5,0-2.439.428-2.439,1.585a1.958,1.958,0,0,0,.659,1.429c.231.209,0,.491-.256.348m2.65-3.35V27c1.325,0,1.724-.461,1.724-.932,0-.614-.715-.979-1.724-.979m1.732,14.407a2.84,2.84,0,0,0,.534-1.82c0-1.347-.682-2.41-1.839-2.41a1.607,1.607,0,0,0-1.417.921c-.2.34-.541,1.188-.7,1.489-.145.268-.354.6-.69.6-.567,0-.8-.62-.8-1.4a2.667,2.667,0,0,1,.27-1.177.214.214,0,0,0-.348-.246,3.6,3.6,0,0,0-.487,1.826c0,1.536.79,2.7,2.058,2.7a1.609,1.609,0,0,0,1.435-.95c.254-.463.5-1.179.667-1.5.143-.285.309-.547.627-.547.432,0,.667.5.645,1.222a2.936,2.936,0,0,1-.274,1.063.2.2,0,0,0,.321.24m2.553-17.3c0,.274-.2.538-.635.612a.505.505,0,0,0,.837.5,1.692,1.692,0,0,0,.477-1.251,1.891,1.891,0,0,0-2-2.005h-.473c-.281,0-.375-.065-.375-.307a.369.369,0,0,0-.4-.4h-.414v.708H70.5v1.278a.533.533,0,0,0,.59.565h3.98c.238.008.319.08.319.3v.424a.493.493,0,0,0,.5.536h.317V21.9l1.806-.01c.229,0,.367.119.366.307M72.257,8.6H75.7a.526.526,0,0,0,.508-.582V6.755H72.257A1.679,1.679,0,0,0,70.332,8.5a2.177,2.177,0,0,0,.762,1.81,1.257,1.257,0,0,0,.16,2.295c.131.043.205.025.125-.115-.113-.207.051-.438.477-.438H75.7a.525.525,0,0,0,.508-.582V10.213H71.557a1.335,1.335,0,0,1-.4-.885c0-.516.453-.731,1.1-.731m-1,26.391a1.264,1.264,0,0,1-.205-2.275,2.1,2.1,0,0,1-.735-1.724,1.744,1.744,0,0,1,1.667-1.96c1.515,0,1.978,1.861,2.226,3.565h.227c.93,0,1.431-.385,1.431-1.317a2.648,2.648,0,0,0-.477-1.413c-.166-.264.078-.432.3-.182a3.211,3.211,0,0,1,.692,2.1,2.418,2.418,0,0,1-2.42,2.658H71.856c-.426,0-.592.229-.477.436.08.139.006.156-.125.115m2.381-2.394A1.619,1.619,0,0,0,72.1,30.978c-.446,0-1.016.221-1.016.674,0,.672.794.94,1.634.94ZM70.422,18.006a1.15,1.15,0,0,0,.833,1.147c.131.039.205.023.125-.117-.115-.205.051-.438.477-.44h2.727c1.456,0,1.8-.786,1.8-1.8a2.166,2.166,0,0,0-.651-1.654.531.531,0,0,0,.475-.582V13.3H70.5V15.14H75.13c.483.41.819,1.616-.5,1.616H71.557a1.17,1.17,0,0,0-1.136,1.249m5.784,24.669h1.783a4.045,4.045,0,0,1-.19-1.29.518.518,0,0,0-.541-.551h-.9c-.106-.039-.147-.121-.147-.28a.367.367,0,0,0-.4-.4h-.42v.678H71.557a1.17,1.17,0,0,0-1.136,1.249,1.144,1.144,0,0,0,.833,1.145c.131.043.205.027.125-.115-.115-.205.051-.436.477-.438h3.209c.238.008.317.082.319.3v.215a.492.492,0,0,0,.5.534h.317Z" transform="translate(1.454 0.875)" fill="#ffda7d"/>
    </g>
  </g>
</svg>
